<svg width="16" height="16" viewBox="0 0 16 16" fill="none" xmlns="http://www.w3.org/2000/svg">
<path d="M15.5889 3.28533H5.24896C5.02761 3.28533 4.83789 3.02933 4.83789 2.73066C4.83789 2.432 5.02761 2.17599 5.24896 2.17599H15.5889C15.8102 2.17599 15.9999 2.432 15.9999 2.73066C15.9999 3.02933 15.8102 3.28533 15.5889 3.28533Z" fill="black"/>
<path d="M2.02372 3.28533H0.411067C0.189723 3.28533 0 3.02933 0 2.73066C0 2.432 0.189723 2.17599 0.411067 2.17599H2.02372C2.24506 2.17599 2.43478 2.432 2.43478 2.73066C2.43478 3.02933 2.27668 3.28533 2.02372 3.28533Z" fill="black"/>
<path d="M15.5889 8.53331H12.8696C12.6482 8.53331 12.4585 8.27731 12.4585 7.97865C12.4585 7.67998 12.6482 7.42398 12.8696 7.42398H15.5889C15.8103 7.42398 16 7.67998 16 7.97865C16 8.27731 15.8103 8.53331 15.5889 8.53331Z" fill="black"/>
<path d="M9.64427 8.53331H0.411067C0.189723 8.53331 0 8.27731 0 7.97865C0 7.67998 0.189723 7.42398 0.411067 7.42398H9.64427C9.86561 7.42398 10.0553 7.67998 10.0553 7.97865C10.0553 8.27731 9.86561 8.53331 9.64427 8.53331Z" fill="black"/>
<path d="M15.5889 13.824H5.24896C5.02761 13.824 4.83789 13.568 4.83789 13.2693C4.83789 12.9706 5.02761 12.7146 5.24896 12.7146H15.5889C15.8102 12.7146 15.9999 12.9706 15.9999 13.2693C15.9999 13.568 15.8102 13.824 15.5889 13.824Z" fill="black"/>
<path d="M2.02372 13.824H0.411067C0.189723 13.824 0 13.568 0 13.2693C0 12.928 0.189723 12.672 0.411067 12.672H2.02372C2.24506 12.672 2.43478 12.928 2.43478 13.2267C2.4664 13.568 2.27668 13.824 2.02372 13.824Z" fill="black"/>
<path d="M3.63651 5.46133C2.52979 5.46133 1.61279 4.224 1.61279 2.73067C1.61279 1.23733 2.52979 0 3.63651 0C4.74323 0 5.66022 1.23733 5.66022 2.73067C5.66022 4.224 4.77485 5.46133 3.63651 5.46133ZM3.63651 1.10933C2.97248 1.10933 2.43493 1.83467 2.43493 2.73067C2.43493 3.62667 2.97248 4.352 3.63651 4.352C4.30054 4.352 4.83809 3.62667 4.83809 2.73067C4.83809 1.83467 4.30054 1.10933 3.63651 1.10933Z" fill="black"/>
<path d="M11.2569 10.7093C10.1501 10.7093 9.23315 9.47202 9.23315 7.97868C9.23315 6.48535 10.1501 5.24802 11.2569 5.24802C12.3636 5.24802 13.2806 6.48535 13.2806 7.97868C13.2806 9.47202 12.3952 10.7093 11.2569 10.7093ZM11.2569 6.35735C10.5928 6.35735 10.0553 7.08268 10.0553 7.97868C10.0553 8.87468 10.5928 9.60001 11.2569 9.60001C11.9209 9.60001 12.4584 8.87468 12.4584 7.97868C12.4584 7.08268 11.9209 6.35735 11.2569 6.35735Z" fill="black"/>
<path d="M3.63651 16C2.52979 16 1.61279 14.7627 1.61279 13.2693C1.61279 11.7333 2.52979 10.5387 3.63651 10.5387C4.74323 10.5387 5.66022 11.776 5.66022 13.2693C5.69184 14.7627 4.77485 16 3.63651 16ZM3.63651 11.648C2.97248 11.648 2.43493 12.3733 2.43493 13.2693C2.43493 14.1653 2.97248 14.8907 3.63651 14.8907C4.30054 14.8907 4.83809 14.1653 4.83809 13.2693C4.83809 12.3733 4.30054 11.648 3.63651 11.648Z" fill="black"/>
</svg>
