<svg width="131.25" height="65.55" viewBox="0 0 350 175" fill="none" xmlns="http://www.w3.org/2000/svg">
<path d="M182.939 0.509766C184.304 1.36172 185.032 2.68854 185.979 4.22949L185.982 4.2334C186.197 4.576 186.411 4.91858 186.632 5.27148V5.27246C191.736 13.5427 195.211 21.9355 197.228 31.4648L197.418 32.3906L197.42 32.4004C197.516 32.8303 197.611 33.2605 197.709 33.7031C199.43 44.2699 196.061 54.7206 190.209 63.3369C186.12 69.1592 181.328 73.6323 175.6 77.7412L175.567 77.7246C175.547 77.7144 175.572 77.7268 175.552 77.7168L175.537 77.709C175.502 77.6913 175.54 77.7101 175.505 77.6924C175.473 77.6758 175.476 77.6779 175.444 77.6611C175.442 77.6603 175.432 77.6546 175.429 77.6533L175.421 77.6494C175.417 77.647 175.418 77.647 175.414 77.6445C175.394 77.6345 175.402 77.639 175.382 77.6289C175.35 77.612 175.292 77.5825 175.259 77.5654C175.251 77.5612 175.214 77.5418 175.182 77.5254L175.244 76.8281C175.56 73.2258 175.871 69.6232 176.182 66.0205C176.298 64.6836 176.414 63.3465 176.532 62.0098C177.25 53.8222 177.85 45.6497 178.123 37.4238L177.134 37.3018C174.294 50.4327 171.785 63.557 169.835 76.8643C168.201 75.4571 166.978 73.9676 165.77 72.0508L165.769 72.0488L165.127 71.0391C158.751 60.7827 154.748 49.2999 156.649 37.082C158.918 27.3313 163.954 19.0301 170.568 11.751L170.567 11.75C171.344 10.8977 171.545 10.6782 172.011 10.0645L172.597 9.28223C174.013 7.47854 175.684 6.07294 177.456 4.53809L177.462 4.53223C177.885 4.15202 178.308 3.77054 178.744 3.37891L178.745 3.37988C179.393 2.81317 179.393 2.81254 180.055 2.23438L180.057 2.2334C180.446 1.89001 180.835 1.54559 181.235 1.19238C181.804 0.832145 182.03 0.692517 182.231 0.618164C182.395 0.557492 182.546 0.538074 182.939 0.509766Z" fill="#66AB37" stroke="black"/>
<path d="M210.439 55.9661C220.706 52.8221 231.861 52.1457 242.396 54.1809C241.659 62.9969 239.228 71.1365 235.552 79.1418V79.1428C235.187 79.9413 235.185 79.9456 234.817 80.7512C229.561 91.4028 221.208 98.7437 210.365 102.756C205.605 104.259 200.927 104.59 195.929 104.559H195.928C194.876 104.553 193.824 104.557 192.775 104.564C189.536 104.567 186.572 104.418 183.511 103.638C185.252 101.834 187.098 100.211 189.044 98.5959L189.046 98.595C189.393 98.3046 189.74 98.0142 190.098 97.7151C192.314 95.8678 194.552 94.0486 196.8 92.2395C200.052 89.619 203.173 86.8601 206.279 84.0774C208.023 82.5238 209.787 80.9943 211.553 79.4602V79.4592C212.594 78.5526 213.619 77.639 214.595 76.6292L213.976 75.8547C208.088 79.4468 202.281 83.1223 196.632 87.1252C195.991 87.5761 195.351 88.027 194.711 88.4778L194.71 88.4788C192.613 89.9592 190.522 91.4479 188.444 92.9592L186.371 94.4788L185.206 95.3381L182.969 97.0002C182.634 97.2481 182.298 97.4958 181.953 97.7512L181.951 97.7532C181.51 98.0818 181.505 98.0843 181.064 98.4133C180.678 98.6542 180.561 98.7221 180.432 98.7571C180.35 98.7794 180.257 98.7864 180.087 98.7913C179.896 91.3134 182.736 83.6785 185.989 77.012L185.99 77.009C186.246 76.4744 186.503 75.9395 186.766 75.3889C191.794 65.7022 200.401 59.3035 210.438 55.9651L210.439 55.9661Z" fill="#A5D23C" stroke="black"/>
<path d="M110.818 54.2151C126.677 52.0652 143.893 53.4868 156.609 64.1584H156.61C164.274 71.0259 168.252 80.1415 170.705 90.2102L170.706 90.2122L171.185 92.1311C171.748 94.5042 172.153 96.6017 172.181 98.9436C170.195 97.7723 168.364 96.5233 166.522 95.0696L166.518 95.0667C157.625 88.1855 148.141 82.0292 138.812 75.8635L138.175 76.6262C141.964 80.5855 145.968 84.2506 150.154 87.7434C151.683 89.0315 153.183 90.352 154.687 91.6809H154.688C156.606 93.3721 158.558 95.0083 160.532 96.6184L162.511 98.2209C164.534 99.8521 166.491 101.544 168.397 103.315C167.078 104.083 165.668 104.409 164.178 104.536C162.457 104.684 160.714 104.565 158.844 104.575H158.843C158.093 104.581 157.342 104.592 156.592 104.608C149.578 104.751 143.059 103.762 136.794 100.393L136.785 100.387L136.775 100.383L135.507 99.7698C124.145 93.9412 117.613 81.5006 113.542 69.4026H113.543C111.94 64.4215 110.666 59.4161 110.818 54.2151Z" fill="#0A7034" stroke="black"/>
<path d="M173.165 134.069V165.804H168.586C168.46 165.413 168.333 165.019 168.203 164.617L167.968 163.885L167.395 164.397C167.027 164.726 166.657 165.055 166.279 165.394C164.199 166.796 161.99 166.802 159.466 166.334C157.146 165.299 155.708 163.704 154.587 161.324C153.205 157.059 153.072 151.853 154.845 147.767C156.073 145.669 157.333 144.118 159.459 143.258C161.201 142.941 162.371 142.968 163.492 143.286C164.648 143.613 165.786 144.256 167.473 145.252L168.228 145.698V134.069H173.165Z" fill="#434446" stroke="black"/>
<path d="M336.904 144.197C338.975 142.8 341.195 142.777 343.704 143.254C346.255 144.531 347.85 146.277 348.827 149.05C349.864 153.533 349.814 158.362 347.877 162.487C347.239 163.53 346.627 164.285 345.91 164.879C345.199 165.468 344.362 165.917 343.251 166.325C341.724 166.508 340.646 166.547 339.625 166.351C338.597 166.153 337.586 165.708 336.213 164.857L335.494 164.41L335.451 165.256C335.295 168.31 335.14 171.363 334.98 174.5H330.018V143.787H334.596C334.722 144.179 334.849 144.572 334.979 144.975L335.215 145.707L335.789 145.195C336.157 144.865 336.525 144.535 336.904 144.197Z" fill="#A7CF45" stroke="black"/>
<path d="M96.2529 135.157C99.5309 134.453 103.137 135.16 106.789 137.461C108.299 138.643 109.174 140.006 109.572 141.915C109.672 142.711 109.737 143.513 109.795 144.322H104.723L104.205 143.149C103.853 142.332 103.637 141.818 103.282 141.417C102.926 141.014 102.443 140.741 101.679 140.298L101.597 140.25L101.503 140.235C98.8367 139.83 96.5333 139.686 94.168 141.482L94.1035 141.532L94.0576 141.599C93.0383 143.095 92.477 144.392 92.1758 145.775C91.952 146.803 91.8743 147.866 91.8486 149.068L91.8369 150.32C91.8249 150.76 91.8122 151.2 91.7998 151.653V151.665C91.786 154.831 92.3258 157.252 94.083 159.929L94.1152 159.978L94.1582 160.018C95.1253 160.932 96.0781 161.403 97.1084 161.626C98.1167 161.843 99.1828 161.817 100.344 161.777H100.355L100.366 161.776C101.766 161.664 103.129 161.459 104.501 161.168L104.896 161.084V154.04H99.4541V150.437H110.35C110.432 152.352 110.495 154.265 110.545 156.183L110.546 156.195C110.575 156.783 110.604 157.372 110.634 157.978C110.676 160.127 110.692 161.122 110.576 161.773C110.475 162.341 110.28 162.619 109.756 163.313C108.919 163.939 108.12 164.396 107.161 164.826L107.143 164.834L107.125 164.844C106.784 165.03 106.443 165.217 106.092 165.409C101.663 167.008 96.6113 167.083 92.3652 165.044C89.2224 162.967 87.6443 160.148 86.5703 156.447L86.5684 156.44C86.4805 156.152 86.3922 155.864 86.3018 155.568C85.4642 151.186 85.5123 145.388 87.5107 141.498C89.9561 137.993 92.9744 135.861 96.2529 135.157Z" fill="#454548" stroke="black"/>
<path d="M240.596 138.206C245.089 133.898 251.158 134.195 256.509 137.057C258.592 138.75 259.427 141.166 260.245 143.875V144.833H255.128C254.931 144.406 254.734 143.978 254.537 143.55C254.296 143.026 254.053 142.501 253.812 141.977C253.598 141.503 253.442 141.136 253.166 140.872C252.89 140.607 252.514 140.464 252.026 140.266L251.964 140.241L251.896 140.233C249.247 139.924 246.966 139.67 244.579 141.483L244.514 141.532L244.468 141.599C243.412 143.148 242.855 144.499 242.568 145.936C242.286 147.354 242.272 148.841 242.278 150.631C242.27 151.109 242.262 151.587 242.254 152.079V152.086C242.252 154.868 242.499 156.79 243.917 159.273V160.462L244.176 160.605C247.458 162.415 251.101 161.852 254.414 161.167L254.812 161.085V154.041H249.37V150.437H260.259C260.286 151.319 260.312 152.2 260.333 153.082L260.399 156.211V156.22C260.42 156.809 260.441 157.398 260.462 158.004V158.005C260.493 160.229 260.504 161.249 260.355 161.939C260.225 162.545 259.974 162.88 259.326 163.684C258.741 163.976 258.708 163.993 258.048 164.323L258.038 164.328L258.029 164.333C257.651 164.542 257.272 164.75 256.883 164.965C252.857 166.593 248.485 167.191 244.321 165.974C240.616 164.186 238.491 161.042 236.932 157.115C236.399 155.08 236.337 153.218 236.352 151.059V151.058C236.354 150.651 236.355 150.245 236.357 149.826C236.443 145.202 237.47 141.573 240.596 138.206Z" fill="#A7CF47" stroke="black"/>
<path d="M293.895 142.776C297.154 144.014 299.036 146.421 300.698 149.489C302.197 153.446 301.496 157.634 299.996 161.469C298.694 163.948 296.911 165.257 294.513 166.496C290.933 167.208 287.583 167.355 284.355 165.419C282.213 163.784 280.842 161.774 280.041 159.144C279.322 150.462 279.322 150.462 281.32 147.163C284.982 142.939 288.538 142.235 293.895 142.776Z" fill="#A7CF46"/>
<path d="M33.661 134.069C33.8173 137.623 33.9736 141.182 34.1346 144.844L34.1747 145.746L34.9178 145.234C35.8689 144.578 36.8195 143.922 37.7977 143.248C40.2242 142.784 42.2838 142.973 44.4862 144.054C45.3978 144.931 46.0011 145.633 46.41 146.417C46.8218 147.206 47.0561 148.114 47.1669 149.425C47.1665 150.203 47.1583 150.981 47.1434 151.759V151.766C47.1413 152.182 47.1388 152.599 47.1366 153.028C47.1283 154.349 47.1096 155.671 47.0907 156.995V156.998L47.0702 159.699C47.0551 161.734 47.0313 163.769 47.0038 165.804H42.0536L42.0389 164.764C42.0103 162.888 41.9717 161.013 41.9305 159.138C41.9141 158.328 41.9007 157.518 41.8895 156.708V156.707C41.8812 156.123 41.8703 155.539 41.8583 154.956L41.8192 153.206C41.8161 152.844 41.8127 152.483 41.8094 152.111V152.108L41.7958 151.408C41.7773 150.837 41.7327 150.53 41.5604 149.353L41.5292 149.137L41.3495 149.013C40.2945 148.286 39.4574 147.953 38.5497 147.838C37.6783 147.729 36.7519 147.828 35.5907 147.904L35.3983 147.916L35.2645 148.054C33.6951 149.677 33.958 151.361 33.9296 153.205C33.92 153.578 33.9101 153.951 33.9003 154.335V154.336C33.8706 155.531 33.8478 156.725 33.8251 157.917C33.8062 158.726 33.7872 159.534 33.7675 160.342C33.7238 162.163 33.686 163.984 33.6503 165.804H28.702V134.069H33.661Z" fill="#434344" stroke="black"/>
<path d="M183.956 144.046C186.194 142.904 188.889 142.682 191.986 143.597C195.094 145.077 196.594 147.186 197.903 150.542V156.086H183.378L183.577 156.734C183.846 157.605 184.052 158.274 184.237 158.796C184.423 159.318 184.599 159.724 184.816 160.06C185.264 160.754 185.853 161.086 186.773 161.621L186.855 161.67L186.948 161.684C188.464 161.914 189.732 161.876 190.965 161.594C192.132 161.326 193.247 160.842 194.49 160.195C195.669 160.59 196.431 161.309 197.339 162.326C197.044 163.137 196.703 163.616 196.272 164.002C195.766 164.455 195.139 164.789 194.207 165.352C191.551 166.654 188.631 166.76 185.672 166.329C182.698 165.102 180.478 163.438 179.072 160.482C177.822 157.175 177.476 153.593 178.542 150.238C179.868 147.293 181.712 145.192 183.956 144.046Z" fill="#444446" stroke="black"/>
<path d="M183.956 144.046C186.194 142.904 188.889 142.682 191.986 143.597C195.094 145.077 196.594 147.186 197.903 150.542V156.086H183.378L183.577 156.734C183.846 157.605 184.052 158.274 184.237 158.796C184.423 159.318 184.599 159.724 184.816 160.06C185.264 160.754 185.853 161.086 186.773 161.621L186.855 161.67L186.948 161.684C188.464 161.914 189.732 161.876 190.965 161.594C192.132 161.326 193.247 160.842 194.49 160.195C195.669 160.59 196.431 161.309 197.339 162.326C197.044 163.137 196.703 163.616 196.272 164.002C195.766 164.455 195.139 164.789 194.207 165.352C191.551 166.654 188.631 166.76 185.672 166.329C182.698 165.102 180.478 163.438 179.072 160.482C177.822 157.175 177.476 153.593 178.542 150.238C179.868 147.293 181.712 145.192 183.956 144.046Z" fill="#444446" stroke="black"/>
<path d="M122.266 143.268C123.979 142.928 125.822 143.009 128.027 143.266C129.301 143.743 130.26 144.324 131.05 145.081C131.84 145.837 132.482 146.79 133.102 148.04C133.295 149.583 133.295 149.599 133.324 151.397L133.325 151.4L133.371 153.432C133.38 154.133 133.389 154.835 133.398 155.537V155.54L133.479 159.68C133.488 160.289 133.497 160.899 133.505 161.526V161.533C133.533 162.504 133.548 163.016 133.623 163.641C133.685 164.165 133.792 164.769 133.98 165.805H128.646V163.759H126.657V164.974C124.32 166.157 122.405 166.784 119.866 166.33C118.215 165.688 116.966 164.782 115.753 163.424C115.027 161.35 114.92 159.448 115.27 157.246C116.163 155.321 117.758 153.994 119.723 153.209C122.282 152.694 124.935 152.89 127.631 152.994L128.191 153.016L128.15 152.457C128.018 150.68 128.015 150.659 127.647 148.815L127.607 148.617L127.44 148.502L127.118 148.286C126.386 147.813 125.785 147.545 125.134 147.42C124.41 147.281 123.657 147.326 122.671 147.392L122.566 147.398L122.474 147.446C122.448 147.46 122.41 147.48 122.387 147.491C122.377 147.496 122.378 147.496 122.368 147.501C122.333 147.519 122.383 147.494 122.348 147.512C122.313 147.53 122.365 147.503 122.33 147.521C122.329 147.522 122.321 147.525 122.32 147.525C122.306 147.532 122.325 147.523 122.311 147.53C122.272 147.55 122.28 147.547 122.244 147.565C122.232 147.571 122.223 147.576 122.213 147.582C122.207 147.585 122.203 147.586 122.198 147.589C122.189 147.593 122.192 147.592 122.183 147.597C122.179 147.599 122.18 147.598 122.175 147.601C122.159 147.609 122.185 147.596 122.169 147.604C122.167 147.606 122.168 147.605 122.166 147.606H122.164L122.162 147.607C122.158 147.609 122.159 147.609 122.155 147.611L122.128 147.625L122.089 147.646C122.088 147.646 122.088 147.646 122.087 147.646L122.085 147.647L122.084 147.648C122.083 147.649 122.079 147.651 122.078 147.651C122.072 147.654 122.071 147.655 122.065 147.658L122.042 147.67C122.019 147.682 122.052 147.664 122.029 147.676C122.014 147.683 122.038 147.672 122.023 147.68L122.007 147.688L122.006 147.688L121.954 147.715L121.953 147.716L121.951 147.717C121.946 147.719 121.952 147.716 121.948 147.719H121.947L121.945 147.72C121.944 147.72 121.943 147.721 121.942 147.722C121.939 147.723 121.94 147.723 121.936 147.725C121.934 147.726 121.894 147.746 121.888 147.749C121.882 147.752 121.844 147.771 121.837 147.775C121.802 147.793 121.818 147.786 121.781 147.805C121.767 147.812 121.736 147.828 121.719 147.837C121.693 147.851 121.679 147.857 121.65 147.872C121.648 147.873 121.648 147.874 121.646 147.875C121.653 147.872 121.657 147.869 121.641 147.877C121.636 147.88 121.637 147.879 121.631 147.882C121.629 147.883 121.616 147.89 121.613 147.892C121.6 147.898 121.606 147.895 121.592 147.902C121.576 147.911 121.59 147.903 121.573 147.912C121.525 147.937 121.536 147.931 121.484 147.958L121.301 148.053L121.238 148.249C121.111 148.642 120.984 149.036 120.855 149.437H115.824C115.887 148.735 115.975 148.202 116.142 147.713C116.344 147.124 116.668 146.566 117.252 145.841C118.959 144.365 120.563 143.605 122.266 143.268Z" fill="#464648" stroke="black"/>
<path d="M61.9313 142.914C63.5044 142.943 65.0888 143.236 66.3502 143.661C68.7671 145.102 70.1012 146.869 71.2418 149.528V156.086H56.6178L56.9381 156.793C57.7121 158.498 58.1323 159.431 58.6071 160.062C59.1085 160.728 59.6709 161.059 60.5992 161.618L60.6842 161.669L60.7828 161.685C62.2344 161.901 63.4296 161.903 64.5856 161.64C65.6848 161.389 66.7159 160.902 67.8766 160.184C68.4258 160.29 68.6718 160.343 68.899 160.437C69.135 160.534 69.3585 160.679 69.8668 161.02C70.1544 161.615 70.2946 161.908 70.402 162.186C70.4954 162.427 70.5638 162.659 70.6823 163.079C69.2051 164.449 67.7867 165.307 66.2545 165.818C64.6467 166.355 62.884 166.523 60.7487 166.476C58.0609 166.15 56.3599 165.02 54.4127 163.014C53.1077 161.038 52.3818 159.254 52.0348 157.376C51.6859 155.487 51.7155 153.479 51.9508 151.046C52.7642 147.794 54.9915 145.775 57.6588 143.713C58.823 143.122 60.3482 142.885 61.9313 142.914Z" fill="#444445" stroke="black"/>
<path d="M310.721 143.787L310.742 144.83L310.869 150.455C310.888 151.266 310.905 152.077 310.921 152.888C310.943 154.055 310.972 155.221 311.002 156.387L311.019 157.485C311.022 158.492 311.019 159.104 311.194 159.657C311.371 160.215 311.723 160.695 312.29 161.481L312.426 161.67L312.658 161.688C313.815 161.777 314.702 161.796 315.578 161.643C316.458 161.488 317.296 161.165 318.368 160.61L318.63 160.476L318.638 160.182C318.797 154.769 318.955 149.355 319.118 143.787H324.07V165.805H319.628V163.194L318.808 163.874C318.478 164.148 318.474 164.15 318.142 164.425C316.764 165.451 315.52 166.038 314.217 166.315C312.921 166.592 311.534 166.567 309.854 166.328C308.889 165.96 308.232 165.495 307.69 164.898C307.133 164.286 306.683 163.522 306.148 162.526C305.48 160.859 305.53 159.257 305.581 157.337V157.327C305.583 156.924 305.587 156.52 305.589 156.104C305.6 154.831 305.625 153.557 305.65 152.28H305.651V152.276C305.661 151.405 305.669 150.534 305.677 149.663C305.697 147.705 305.729 145.746 305.765 143.787H310.721Z" fill="#A7CE44" stroke="black"/>
<path d="M209.295 144.73C211.774 142.717 214.551 142.776 217.648 143.77C219.373 145.107 220.465 146.787 220.837 148.976C220.89 150.07 220.886 151.15 220.856 152.255V152.265C220.853 152.668 220.85 153.072 220.847 153.487C220.836 154.761 220.812 156.035 220.787 157.312V157.315L220.76 159.929C220.74 161.887 220.708 163.846 220.672 165.805H215.719C215.714 165.48 215.709 165.153 215.704 164.819V164.818C215.689 163.912 215.672 163.006 215.654 162.101L215.595 159.385C215.579 158.603 215.566 157.82 215.554 157.038C215.546 156.474 215.535 155.91 215.523 155.346L215.484 153.654C215.481 153.307 215.478 152.959 215.474 152.602V152.591C215.43 151.113 215.389 150.002 214.443 148.66L214.391 148.587L214.319 148.537L214.159 148.431C212.511 147.383 210.868 147.771 209.248 147.904L209.06 147.919L208.929 148.055C207.36 149.677 207.623 151.361 207.594 153.204L207.565 154.336C207.536 155.53 207.513 156.724 207.49 157.917C207.471 158.725 207.452 159.534 207.432 160.342V160.343C207.389 162.164 207.351 163.984 207.315 165.805H202.367V143.787H206.916C206.967 143.997 207.018 144.208 207.069 144.42C207.151 144.76 207.234 145.103 207.318 145.45L207.509 146.236L208.127 145.716C208.512 145.391 208.898 145.065 209.295 144.73Z" fill="#434345" stroke="black"/>
<path d="M24.2383 135.603V140.23H14.8379V165.804H9.40625V139.719H0.5V135.603H24.2383Z" fill="#48494B" stroke="black"/>
<path d="M148.607 143.207C149.262 143.123 149.947 143.171 150.9 143.24V148.449C150.507 148.479 150.113 148.51 149.72 148.54C149.172 148.582 148.625 148.624 148.077 148.665L148.041 148.667L148.005 148.676C147.253 148.845 146.676 149.034 146.143 149.34C145.61 149.646 145.15 150.051 144.608 150.613L144.506 150.719L144.478 150.864C144.319 151.67 144.233 152.107 144.192 152.578C144.172 152.812 144.164 153.053 144.161 153.352L144.167 154.471C144.159 154.804 144.15 155.137 144.142 155.48V155.481C144.118 156.563 144.107 157.644 144.097 158.723L144.053 160.914C144.019 162.545 143.997 164.175 143.979 165.805H139.036V143.787H144.109C144.236 144.179 144.362 144.572 144.492 144.975L144.748 145.769L145.327 145.169L145.358 145.138C145.382 145.113 145.365 145.131 145.389 145.106C145.391 145.103 145.416 145.078 145.419 145.074L145.454 145.039C145.463 145.031 145.45 145.043 145.458 145.034C145.46 145.032 145.464 145.029 145.466 145.027C145.468 145.024 145.47 145.022 145.473 145.019L145.512 144.98C145.523 144.969 145.531 144.959 145.542 144.948L145.565 144.924L145.566 144.922L145.588 144.901C145.617 144.87 145.574 144.914 145.604 144.884C145.61 144.877 145.627 144.86 145.634 144.853C145.653 144.833 145.676 144.809 145.695 144.789C145.742 144.741 145.771 144.71 145.818 144.661C145.855 144.624 145.813 144.668 145.85 144.63C145.881 144.598 145.834 144.646 145.865 144.614C145.873 144.605 145.872 144.606 145.88 144.598C145.914 144.563 145.877 144.601 145.911 144.566L145.942 144.534C145.944 144.533 145.957 144.519 145.958 144.518C145.977 144.498 145.954 144.522 145.974 144.502C145.988 144.487 145.974 144.5 145.988 144.486C145.995 144.479 145.997 144.477 146.004 144.47C146.017 144.456 146.022 144.452 146.035 144.438C146.044 144.428 146.042 144.431 146.051 144.421L146.066 144.406L146.191 144.277C146.204 144.263 146.248 144.217 146.281 144.183C147.205 143.553 147.894 143.299 148.607 143.207Z" fill="#424244" stroke="black"/>
<path d="M275.269 143.207C275.923 143.123 276.609 143.171 277.562 143.24V148.456C276.93 148.513 276.778 148.527 275.883 148.608C275.017 148.685 274.388 148.766 273.779 148.974C273.167 149.183 272.603 149.511 271.841 150.036L271.663 150.158L271.63 150.371C271.504 151.183 271.438 151.615 271.404 152.086C271.371 152.554 271.371 153.059 271.371 154.017L271.345 155.067C271.318 156.189 271.301 157.311 271.284 158.43C271.268 159.189 271.251 159.948 271.234 160.706V160.707C271.195 162.407 271.164 164.106 271.138 165.805H266.193V143.787H270.771C270.897 144.179 271.024 144.572 271.153 144.975L271.409 145.769L271.989 145.169C272.007 145.151 271.986 145.172 272.004 145.154L272.02 145.138C272.044 145.113 272.026 145.131 272.05 145.106L272.089 145.067C272.092 145.063 272.092 145.062 272.096 145.059L272.115 145.039C272.124 145.031 272.111 145.043 272.119 145.034L272.143 145.011C272.164 144.989 272.152 145.002 272.173 144.98C272.184 144.969 272.192 144.959 272.203 144.948L272.234 144.916C272.236 144.915 272.247 144.903 272.249 144.901C272.278 144.87 272.235 144.914 272.265 144.884C272.272 144.877 272.289 144.86 272.296 144.853C272.315 144.833 272.337 144.809 272.357 144.789C272.403 144.741 272.434 144.71 272.481 144.661C272.516 144.624 272.475 144.667 272.511 144.63C272.542 144.598 272.495 144.646 272.526 144.614C272.535 144.605 272.534 144.606 272.542 144.598C272.576 144.563 272.54 144.601 272.573 144.566C272.575 144.564 272.579 144.559 272.58 144.558L272.604 144.534C272.605 144.533 272.618 144.519 272.619 144.518C272.639 144.498 272.616 144.522 272.635 144.502C272.649 144.487 272.636 144.501 272.651 144.486C272.657 144.479 272.66 144.477 272.666 144.47C272.68 144.456 272.684 144.452 272.697 144.438C272.706 144.428 272.703 144.431 272.712 144.421L272.728 144.406L272.853 144.277C272.865 144.264 272.908 144.219 272.941 144.185C273.865 143.553 274.555 143.299 275.269 143.207Z" fill="#A6D044" stroke="black"/>
<path d="M290.387 148.199C291.164 148.217 291.57 148.249 291.934 148.373C292.287 148.493 292.637 148.714 293.246 149.196C293.869 150.083 294.17 150.806 294.325 151.573C294.486 152.377 294.493 153.241 294.508 154.45V154.455C294.521 155.07 294.532 155.685 294.545 156.318C294.439 157.455 294.201 158.304 293.811 159.061C293.435 159.788 292.906 160.454 292.173 161.224C290.836 161.379 289.915 161.466 288.695 161.236C287.941 160.481 287.415 159.784 287.052 159.02C286.674 158.223 286.459 157.327 286.376 156.178C286.369 155.657 286.363 155.135 286.355 154.597L286.354 154.592L286.316 153.033C286.47 151.608 286.857 150.468 287.504 149.658C288.139 148.863 289.059 148.338 290.387 148.199Z" stroke="black"/>
<path d="M339.84 148.17C341.263 148.496 341.933 149.351 342.918 150.676C343.803 153.476 343.745 156.468 342.734 159.208C342.349 159.806 342.168 160.086 341.967 160.34C341.78 160.576 341.574 160.791 341.162 161.217C339.524 161.354 338.76 161.412 338.222 161.344C337.729 161.282 337.439 161.119 336.701 160.674C336.241 160.229 336.076 160.062 335.974 159.886C335.877 159.719 335.829 159.531 335.707 158.975C335.708 158.562 335.709 158.148 335.71 157.722V157.72C335.71 157.251 335.709 156.782 335.709 156.298C335.719 155.806 335.728 155.313 335.738 154.806H335.739V154.792C335.736 154.302 335.732 153.812 335.729 153.307C335.745 151.481 335.754 150.638 335.852 150.094C335.934 149.636 336.072 149.419 336.45 148.879C337.47 148.149 338.446 148.121 339.84 148.17Z" stroke="black"/>
<path d="M164.667 148.176C165.389 148.332 165.814 148.523 166.159 148.798C166.513 149.08 166.817 149.477 167.251 150.125C167.514 151.662 167.503 153.17 167.475 154.787V154.805C167.483 155.242 167.49 155.679 167.498 156.129C167.492 157.137 167.484 157.877 167.35 158.571C167.223 159.227 166.977 159.852 166.484 160.603C165.823 161.037 165.306 161.256 164.78 161.365C164.229 161.479 163.637 161.479 162.802 161.438C162.357 161.326 162.211 161.283 162.032 161.165C161.821 161.025 161.571 160.783 160.985 160.209C159.494 157.516 159.502 154.774 159.806 151.596C160.374 150.188 160.92 149.408 161.613 148.939C162.31 148.468 163.229 148.261 164.667 148.176Z" stroke="black"/>
<g filter="url(#filter0_d_203_278)">
<path d="M123.445 156.53C123.955 156.441 124.499 156.447 125.281 156.479H125.285C125.943 156.499 125.947 156.499 126.612 156.52V156.521C126.801 156.531 126.989 156.54 127.179 156.55C127.28 158.159 127.319 158.938 127.243 159.465C127.174 159.937 127.019 160.181 126.589 160.777C124.992 161.409 123.757 161.366 121.943 161.218C121.525 160.783 121.372 160.609 121.278 160.407C121.175 160.186 121.134 159.914 121.042 159.173C121.133 158.401 121.175 158.108 121.266 157.893C121.347 157.702 121.47 157.562 121.872 157.149C122.489 156.79 122.963 156.615 123.445 156.53Z" stroke="black" shape-rendering="crispEdges"/>
</g>
<path d="M186.161 148.897C186.88 148.301 187.961 148.085 189.784 148.365C190.45 148.893 190.765 149.144 191.033 149.421C191.294 149.691 191.514 149.989 191.966 150.612V151.994H184.672C185.026 150.435 185.484 149.458 186.161 148.897Z" stroke="black"/>
<path d="M59.9938 149.489C60.7128 148.892 61.7939 148.676 63.6168 148.956C64.2829 149.484 64.5984 149.735 64.8658 150.012C65.1274 150.282 65.3468 150.58 65.7994 151.203V152.585H58.5055C58.8592 151.026 59.3172 150.05 59.9938 149.489Z" stroke="black"/>
<path d="M110.329 150.437V162.021C110.173 161.968 110.017 161.915 109.859 161.86C110.011 158.089 110.163 154.314 110.319 150.437H110.329Z" fill="#58585A" stroke="black"/>
<path d="M29.6307 134.069C29.5934 134.082 29.5562 134.097 29.5194 134.115C29.2182 134.259 29.0192 134.521 28.8026 134.789L28.705 134.91L28.702 134.948V134.069H29.6307Z" fill="#363737" stroke="black"/>
<path d="M144.481 144.989C144.482 144.991 144.501 145.02 144.502 145.023C144.512 145.039 144.498 145.015 144.508 145.031C144.509 145.032 144.51 145.034 144.511 145.035C144.512 145.037 144.513 145.038 144.514 145.039C144.518 145.045 144.521 145.051 144.525 145.057C144.537 145.076 144.535 145.073 144.548 145.093L144.708 145.341C144.636 145.342 144.56 145.343 144.479 145.343V144.985C144.478 144.984 144.477 144.983 144.481 144.989ZM149.625 143.167C148.565 143.525 147.583 143.955 146.583 144.743C146.102 145.108 145.953 145.212 145.709 145.271C145.574 145.303 145.41 145.32 145.171 145.33L145.327 145.169C145.343 145.153 145.343 145.154 145.359 145.138C145.376 145.12 145.371 145.124 145.389 145.106C145.417 145.077 145.422 145.072 145.45 145.043C145.465 145.028 145.496 144.995 145.511 144.98C145.513 144.978 145.525 144.965 145.526 144.963L145.558 144.932L145.561 144.928L145.592 144.897C145.593 144.895 145.594 144.893 145.596 144.892C145.601 144.886 145.604 144.884 145.604 144.884C145.609 144.879 145.629 144.858 145.634 144.853C145.637 144.849 145.691 144.794 145.695 144.789C145.717 144.767 145.705 144.779 145.727 144.757L145.728 144.755L145.757 144.726C145.784 144.698 145.746 144.737 145.773 144.709L145.792 144.69C145.798 144.684 145.79 144.691 145.795 144.686C145.814 144.666 145.784 144.697 145.803 144.678C145.816 144.664 145.805 144.675 145.818 144.661L145.85 144.63C145.875 144.604 145.855 144.624 145.88 144.598C145.914 144.563 145.909 144.569 145.943 144.534C146.007 144.468 146.002 144.472 146.067 144.406L146.082 144.39C146.086 144.386 146.086 144.385 146.09 144.381L146.113 144.358C146.116 144.355 146.127 144.343 146.129 144.341L146.143 144.327L146.145 144.324L146.16 144.309C146.162 144.307 146.174 144.294 146.176 144.292L146.195 144.273C146.202 144.266 146.193 144.274 146.199 144.268L146.223 144.244C146.225 144.242 146.236 144.23 146.238 144.228L146.246 144.22C146.25 144.216 146.25 144.215 146.254 144.211C146.261 144.204 146.263 144.203 146.27 144.196C146.279 144.186 146.269 144.196 146.277 144.187L146.278 144.185C147.203 143.553 147.894 143.299 148.608 143.207C148.93 143.166 149.26 143.158 149.625 143.167Z" fill="#656667" stroke="black"/>
<path d="M172.176 97.2141V98.9338C171.308 98.421 171 98.2391 170.019 97.6594C170.224 97.4594 170.337 97.3688 170.455 97.3127C170.628 97.2309 170.83 97.2102 171.498 97.177C171.723 97.1892 171.948 97.2017 172.176 97.2141Z" fill="#2D8757" stroke="black"/>
<path d="M54.6434 147.131C54.3709 147.548 54.0992 147.966 53.8231 148.382L53.8212 148.384C53.6073 148.709 53.3928 149.035 53.1727 149.37C53.0169 149.561 52.8616 149.753 52.703 149.948H52.62C52.934 148.889 53.1082 148.341 53.2977 147.949C53.4755 147.581 53.6632 147.357 54.0692 146.932C54.2599 146.998 54.4509 147.064 54.6434 147.131Z" fill="#4E4E4F" stroke="black"/>
<path d="M180.362 98.2083C180.384 98.2196 180.463 98.2604 180.485 98.2717C180.487 98.273 180.49 98.2736 180.492 98.2747C180.483 98.2793 180.474 98.2855 180.463 98.2913C180.441 98.3023 180.437 98.3037 180.416 98.3147C180.4 98.3227 180.385 98.3312 180.37 98.3391L180.367 98.3401C180.366 98.3406 180.365 98.3416 180.364 98.342L180.352 98.3479C180.351 98.3484 180.35 98.3494 180.349 98.3499C180.348 98.3503 180.347 98.3504 180.346 98.3508C180.345 98.3513 180.344 98.3523 180.343 98.3528C180.342 98.3533 180.341 98.3533 180.34 98.3538L180.329 98.3596C180.328 98.3601 180.327 98.3611 180.326 98.3616C180.325 98.362 180.324 98.3621 180.323 98.3625C180.298 98.3754 180.301 98.374 180.276 98.387C180.26 98.3955 180.269 98.3911 180.253 98.3997C180.233 98.4098 180.248 98.4022 180.228 98.4124C180.211 98.4211 180.197 98.4277 180.179 98.4368C180.177 98.4379 180.17 98.4424 180.168 98.4436C180.161 98.4469 180.161 98.4472 180.155 98.4504L180.102 98.4768V98.0735L180.362 98.2083Z" fill="#A7D74E" stroke="black"/>
<defs>
<filter id="filter0_d_203_278" x="116.539" y="155.957" width="15.244" height="13.8547" filterUnits="userSpaceOnUse" color-interpolation-filters="sRGB">
<feFlood flood-opacity="0" result="BackgroundImageFix"/>
<feColorMatrix in="SourceAlpha" type="matrix" values="0 0 0 0 0 0 0 0 0 0 0 0 0 0 0 0 0 0 127 0" result="hardAlpha"/>
<feOffset dy="4"/>
<feGaussianBlur stdDeviation="2"/>
<feComposite in2="hardAlpha" operator="out"/>
<feColorMatrix type="matrix" values="0 0 0 0 0 0 0 0 0 0 0 0 0 0 0 0 0 0 0.25 0"/>
<feBlend mode="normal" in2="BackgroundImageFix" result="effect1_dropShadow_203_278"/>
<feBlend mode="normal" in="SourceGraphic" in2="effect1_dropShadow_203_278" result="shape"/>
</filter>
</defs>
</svg>
