<svg width="16" height="16" viewBox="0 0 16 16" fill="none" xmlns="http://www.w3.org/2000/svg">
<path d="M13.4601 4.13556L14.4868 3.26162C14.7484 3.03741 14.7484 2.6747 14.4868 2.45049C14.2251 2.22629 13.8018 2.22629 13.5401 2.45049L12.4135 3.42728C11.2986 2.7918 10.0145 2.40838 8.68035 2.3134V1.14243H9.01367C9.382 1.14243 9.68031 0.886815 9.68031 0.571213C9.68031 0.255611 9.382 0 9.01367 0H7.01376C6.64544 0 6.34712 0.255611 6.34712 0.571213C6.34712 0.886815 6.64544 1.14243 7.01376 1.14243H7.34708V2.3134C4.89044 2.48548 2.66398 3.61862 1.31151 5.38443C-0.0409215 7.1502 -0.367585 9.35148 0.425724 11.3508C1.21903 13.3507 3.04385 14.9252 5.37142 15.6193C7.69964 16.3133 10.2704 16.0491 12.3411 14.9031C14.411 13.7571 15.7494 11.8571 15.9685 9.75361C16.1868 7.65008 15.2619 5.57727 13.4602 4.1358L13.4601 4.13556ZM8.01376 14.8515C6.2455 14.8515 4.54981 14.2496 3.29973 13.1786C2.04965 12.1076 1.34733 10.6545 1.34733 9.13933C1.34733 7.6242 2.0498 6.17122 3.29973 5.10008C4.54966 4.02894 6.24552 3.42715 8.01376 3.42715C9.782 3.42715 11.4777 4.02907 12.7278 5.10008C13.9779 6.17109 14.6802 7.6242 14.6802 9.13933C14.6802 10.6545 13.9777 12.1074 12.7278 13.1786C11.4779 14.2497 9.782 14.8515 8.01376 14.8515ZM8.6804 5.1409V9.13939C8.6804 9.31932 8.58123 9.48855 8.41374 9.59636L5.74719 11.31C5.6322 11.3843 5.49138 11.4242 5.34721 11.4242C5.13722 11.4242 4.93972 11.3393 4.8139 11.1958C4.59307 10.9437 4.65308 10.5853 4.94723 10.3961L7.34712 8.85378V5.14099C7.34712 4.82539 7.64543 4.56978 8.01376 4.56978C8.38208 4.56978 8.6804 4.8253 8.6804 5.1409Z" fill="black"/>
</svg>
